<svg viewBox="0 0 680 480" xmlns="http://www.w3.org/2000/svg">
  <defs>
    <linearGradient id="bgGrad2" x1="0%" y1="0%" x2="0%" y2="100%">
      <stop offset="0%" style="stop-color:#1a1a2e;stop-opacity:1"/>
      <stop offset="100%" style="stop-color:#16213e;stop-opacity:1"/>
    </linearGradient>
  </defs>

  <rect width="680" height="480" fill="url(#bgGrad2)" rx="12"/>

  <!-- Title -->
  <text x="340" y="30" text-anchor="middle" fill="#e0e0e0" font-family="sans-serif" font-size="17" font-weight="bold">青教赛评分体系总览</text>
  <text x="340" y="48" text-anchor="middle" fill="#888" font-family="sans-serif" font-size="11">Scoring Rubrics Overview (Total: 100 points)</text>

  <!-- Three main sections -->
  <!-- 教学设计 20分 -->
  <rect x="20" y="65" width="200" height="390" fill="#0f3460" rx="8" stroke="#533483" stroke-width="1.5" opacity="0.8"/>
  <rect x="20" y="65" width="200" height="35" fill="#e94560" rx="8" opacity="0.9"/>
  <rect x="20" y="92" width="200" height="8" fill="#e94560" opacity="0.9"/>
  <text x="120" y="88" text-anchor="middle" fill="#fff" font-family="sans-serif" font-size="14" font-weight="bold">教学设计 (20分)</text>

  <text x="120" y="120" text-anchor="middle" fill="#aaa" font-family="sans-serif" font-size="9">权重 20%</text>

  <rect x="35" y="135" width="170" height="45" fill="#16213e" rx="4" stroke="#533483" stroke-width="0.5"/>
  <text x="120" y="152" text-anchor="middle" fill="#e0e0e0" font-family="sans-serif" font-size="11">立德树人</text>
  <text x="120" y="168" text-anchor="middle" fill="#e94560" font-family="sans-serif" font-size="12" font-weight="bold">2分</text>

  <rect x="35" y="190" width="170" height="45" fill="#16213e" rx="4" stroke="#533483" stroke-width="0.5"/>
  <text x="120" y="207" text-anchor="middle" fill="#e0e0e0" font-family="sans-serif" font-size="11">学科前沿</text>
  <text x="120" y="223" text-anchor="middle" fill="#e94560" font-family="sans-serif" font-size="12" font-weight="bold">4分</text>

  <rect x="35" y="245" width="170" height="45" fill="#16213e" rx="4" stroke="#533483" stroke-width="0.5"/>
  <text x="120" y="262" text-anchor="middle" fill="#e0e0e0" font-family="sans-serif" font-size="11">教学目标</text>
  <text x="120" y="278" text-anchor="middle" fill="#e94560" font-family="sans-serif" font-size="12" font-weight="bold">4分</text>

  <rect x="35" y="300" width="170" height="45" fill="#16213e" rx="4" stroke="#533483" stroke-width="0.5"/>
  <text x="120" y="317" text-anchor="middle" fill="#e0e0e0" font-family="sans-serif" font-size="11">重点难点</text>
  <text x="120" y="333" text-anchor="middle" fill="#e94560" font-family="sans-serif" font-size="12" font-weight="bold">4分</text>

  <rect x="35" y="355" width="170" height="45" fill="#16213e" rx="4" stroke="#533483" stroke-width="0.5"/>
  <text x="120" y="372" text-anchor="middle" fill="#e0e0e0" font-family="sans-serif" font-size="11">进程组织</text>
  <text x="120" y="388" text-anchor="middle" fill="#e94560" font-family="sans-serif" font-size="12" font-weight="bold">4分</text>

  <rect x="35" y="410" width="170" height="35" fill="#16213e" rx="4" stroke="#533483" stroke-width="0.5"/>
  <text x="120" y="432" text-anchor="middle" fill="#e0e0e0" font-family="sans-serif" font-size="11">文字表达 - </text>
  <text x="155" y="432" text-anchor="middle" fill="#e94560" font-family="sans-serif" font-size="12" font-weight="bold">2分</text>

  <!-- 课堂教学 75分 -->
  <rect x="240" y="65" width="200" height="390" fill="#0f3460" rx="8" stroke="#533483" stroke-width="1.5" opacity="0.8"/>
  <rect x="240" y="65" width="200" height="35" fill="#0f3460" rx="8"/>
  <rect x="240" y="92" width="200" height="8" fill="#0f3460"/>
  <text x="340" y="88" text-anchor="middle" fill="#fff" font-family="sans-serif" font-size="14" font-weight="bold">课堂教学 (75分)</text>

  <text x="340" y="120" text-anchor="middle" fill="#aaa" font-family="sans-serif" font-size="9">权重 75%</text>

  <rect x="255" y="135" width="170" height="55" fill="#16213e" rx="4" stroke="#533483" stroke-width="0.5"/>
  <text x="340" y="152" text-anchor="middle" fill="#e0e0e0" font-family="sans-serif" font-size="11" font-weight="bold">教学内容</text>
  <text x="340" y="167" text-anchor="middle" fill="#888" font-family="sans-serif" font-size="9">立德树人6+理论实际6+学术6</text>
  <text x="340" y="180" text-anchor="middle" fill="#888" font-family="sans-serif" font-size="9">前沿3+重点9 = </text>
  <text x="375" y="180" text-anchor="middle" fill="#e94560" font-family="sans-serif" font-size="11" font-weight="bold">30分</text>

  <rect x="255" y="200" width="170" height="55" fill="#16213e" rx="4" stroke="#533483" stroke-width="0.5"/>
  <text x="340" y="217" text-anchor="middle" fill="#e0e0e0" font-family="sans-serif" font-size="11" font-weight="bold">教学组织</text>
  <text x="340" y="232" text-anchor="middle" fill="#888" font-family="sans-serif" font-size="9">学生中心10+启发10+时间3</text>
  <text x="340" y="245" text-anchor="middle" fill="#888" font-family="sans-serif" font-size="9">手段4+板书3 = </text>
  <text x="375" y="245" text-anchor="middle" fill="#e94560" font-family="sans-serif" font-size="11" font-weight="bold">30分</text>

  <rect x="255" y="265" width="170" height="55" fill="#16213e" rx="4" stroke="#533483" stroke-width="0.5"/>
  <text x="340" y="282" text-anchor="middle" fill="#e0e0e0" font-family="sans-serif" font-size="11" font-weight="bold">语言教态</text>
  <text x="340" y="297" text-anchor="middle" fill="#888" font-family="sans-serif" font-size="9">语言5+肢体3+仪表2</text>
  <text x="340" y="312" text-anchor="middle" fill="#e94560" font-family="sans-serif" font-size="11" font-weight="bold">10分</text>

  <rect x="255" y="330" width="170" height="45" fill="#16213e" rx="4" stroke="#533483" stroke-width="0.5"/>
  <text x="340" y="348" text-anchor="middle" fill="#e0e0e0" font-family="sans-serif" font-size="11" font-weight="bold">教学特色</text>
  <text x="340" y="365" text-anchor="middle" fill="#e94560" font-family="sans-serif" font-size="12" font-weight="bold">5分</text>

  <!-- AI & 思政 indicators -->
  <rect x="255" y="385" width="80" height="25" fill="#533483" rx="4" opacity="0.6"/>
  <text x="295" y="402" text-anchor="middle" fill="#ccc" font-family="sans-serif" font-size="9">AI赋能 2分</text>
  <rect x="345" y="385" width="80" height="25" fill="#533483" rx="4" opacity="0.6"/>
  <text x="385" y="402" text-anchor="middle" fill="#ccc" font-family="sans-serif" font-size="9">课程思政 必考</text>

  <rect x="255" y="420" width="170" height="25" fill="#16213e" rx="4" stroke="#533483" stroke-width="0.5"/>
  <text x="340" y="437" text-anchor="middle" fill="#888" font-family="sans-serif" font-size="9">15-20分钟现场展示</text>

  <!-- 教学反思 5分 -->
  <rect x="460" y="65" width="200" height="390" fill="#0f3460" rx="8" stroke="#533483" stroke-width="1.5" opacity="0.8"/>
  <rect x="460" y="65" width="200" height="35" fill="#533483" rx="8" opacity="0.9"/>
  <rect x="460" y="92" width="200" height="8" fill="#533483" opacity="0.9"/>
  <text x="560" y="88" text-anchor="middle" fill="#fff" font-family="sans-serif" font-size="14" font-weight="bold">教学反思 (5分)</text>

  <text x="560" y="120" text-anchor="middle" fill="#aaa" font-family="sans-serif" font-size="9">权重 5%</text>

  <rect x="475" y="135" width="170" height="55" fill="#16213e" rx="4" stroke="#533483" stroke-width="0.5"/>
  <text x="560" y="155" text-anchor="middle" fill="#e0e0e0" font-family="sans-serif" font-size="11">教学理念反思</text>
  <text x="560" y="175" text-anchor="middle" fill="#e94560" font-family="sans-serif" font-size="12" font-weight="bold">~1.7分</text>

  <rect x="475" y="200" width="170" height="55" fill="#16213e" rx="4" stroke="#533483" stroke-width="0.5"/>
  <text x="560" y="220" text-anchor="middle" fill="#e0e0e0" font-family="sans-serif" font-size="11">教学方法反思</text>
  <text x="560" y="240" text-anchor="middle" fill="#e94560" font-family="sans-serif" font-size="12" font-weight="bold">~1.7分</text>

  <rect x="475" y="265" width="170" height="55" fill="#16213e" rx="4" stroke="#533483" stroke-width="0.5"/>
  <text x="560" y="285" text-anchor="middle" fill="#e0e0e0" font-family="sans-serif" font-size="11">教学过程反思</text>
  <text x="560" y="305" text-anchor="middle" fill="#e94560" font-family="sans-serif" font-size="12" font-weight="bold">~1.6分</text>

  <rect x="475" y="335" width="170" height="50" fill="#16213e" rx="4" stroke="#533483" stroke-width="0.5"/>
  <text x="560" y="355" text-anchor="middle" fill="#888" font-family="sans-serif" font-size="9">500字以内</text>
  <text x="560" y="370" text-anchor="middle" fill="#888" font-family="sans-serif" font-size="9">45分钟现场撰写</text>
  <text x="560" y="380" text-anchor="middle" fill="#888" font-family="sans-serif" font-size="9">不允许携带资料</text>

  <rect x="475" y="400" width="170" height="40" fill="#16213e" rx="4" stroke="#533483" stroke-width="0.5"/>
  <text x="560" y="420" text-anchor="middle" fill="#888" font-family="sans-serif" font-size="9">七分成绩 + 三分不足</text>
  <text x="560" y="432" text-anchor="middle" fill="#888" font-family="sans-serif" font-size="9">+ 改进方向</text>
</svg>
